<?xml version="1.0" standalone="no"?>
<!DOCTYPE svg PUBLIC "-//W3C//DTD SVG 20010904//EN"
 "http://www.w3.org/TR/2001/REC-SVG-20010904/DTD/svg10.dtd">
<svg version="1.0" xmlns="http://www.w3.org/2000/svg"
 width="1875.000000pt" height="1875.000000pt" viewBox="0 0 1875.000000 1875.000000"
 preserveAspectRatio="xMidYMid meet">
<metadata>
Created by potrace 1.11, written by Peter Selinger 2001-2013
</metadata>
<g transform="translate(0.000000,1875.000000) scale(0.100000,-0.100000)"
fill="#000000" stroke="none">
<path d="M8305 16506 c-3 -18 -9 -54 -30 -196 -2 -14 -9 -54 -14 -90 -5 -36
-13 -85 -16 -110 -3 -25 -12 -83 -20 -130 -7 -47 -17 -110 -21 -140 -4 -30 -8
-57 -9 -60 -2 -9 -18 -113 -31 -200 -2 -19 -7 -48 -9 -63 -2 -15 -7 -47 -10
-70 -3 -23 -8 -53 -10 -67 -8 -45 -14 -84 -20 -130 -3 -25 -9 -70 -15 -100 -5
-30 -12 -73 -15 -95 -3 -23 -7 -50 -9 -61 -2 -12 -7 -45 -11 -75 -3 -30 -8
-61 -10 -69 -2 -8 -7 -33 -10 -55 -10 -75 -44 -300 -49 -325 -3 -14 -12 -77
-20 -140 -9 -63 -18 -124 -20 -135 -3 -18 -9 -54 -21 -135 -3 -14 -7 -43 -9
-65 -3 -22 -8 -49 -10 -60 -2 -11 -7 -42 -10 -70 -4 -27 -9 -57 -11 -65 -2 -8
-6 -37 -10 -65 -3 -27 -12 -90 -20 -140 -8 -49 -16 -107 -19 -127 -10 -67 -17
-112 -26 -173 -5 -33 -12 -78 -15 -100 -4 -22 -10 -67 -15 -100 -5 -33 -12
-78 -15 -100 -3 -22 -8 -51 -10 -65 -3 -14 -7 -43 -10 -65 -4 -22 -10 -65 -15
-95 -5 -30 -12 -75 -15 -100 -3 -25 -8 -56 -10 -70 -2 -14 -6 -41 -9 -60 -5
-36 -14 -91 -22 -145 -3 -16 -9 -55 -14 -85 -5 -30 -12 -75 -15 -100 -3 -25
-10 -70 -15 -100 -11 -66 -17 -108 -25 -175 -4 -27 -8 -57 -10 -65 -2 -8 -7
-35 -10 -60 -3 -25 -10 -70 -15 -100 -6 -30 -12 -77 -15 -105 -3 -27 -8 -57
-10 -65 -2 -8 -7 -35 -10 -60 -3 -25 -11 -74 -16 -110 -5 -36 -12 -76 -14 -90
-8 -54 -18 -116 -20 -131 -2 -9 -6 -40 -10 -70 -4 -30 -8 -56 -10 -59 -2 -3
-6 -32 -9 -64 -4 -32 -8 -62 -10 -65 -2 -3 -7 -35 -10 -71 -4 -36 -9 -74 -11
-85 -8 -32 -17 -93 -51 -325 -3 -19 -7 -46 -9 -60 -3 -14 -7 -43 -10 -65 -3
-22 -10 -65 -15 -95 -5 -30 -12 -75 -15 -100 -3 -25 -8 -56 -10 -70 -8 -49
-24 -156 -30 -195 -3 -23 -7 -50 -9 -60 -2 -11 -7 -45 -11 -75 -4 -30 -9 -62
-10 -70 -1 -8 -6 -35 -10 -60 -3 -25 -9 -58 -12 -75 -2 -16 -6 -39 -8 -50 -1
-11 -6 -47 -11 -80 -4 -33 -9 -63 -10 -67 -1 -5 -2 -19 -3 -32 -1 -18 -13 -29
-58 -50 -137 -62 -307 -172 -424 -273 -91 -79 -301 -293 -369 -378 -35 -44
-67 -82 -71 -85 -40 -32 -419 -582 -574 -835 -537 -872 -808 -1246 -1063
-1462 -107 -90 -108 -91 -200 -144 -382 -219 -773 -104 -1199 353 -29 31 -53
54 -53 51 0 -12 101 -244 126 -289 244 -441 600 -674 1104 -721 95 -9 314 -8
405 1 96 10 155 17 185 22 14 2 41 7 60 10 377 57 967 249 1529 498 58 25 105
45 106 43 1 -1 -4 -42 -12 -92 -7 -49 -15 -103 -17 -120 -4 -25 -26 -169 -71
-470 -4 -22 -8 -51 -10 -64 -2 -13 -7 -45 -11 -70 -4 -25 -8 -53 -10 -63 -1
-9 -6 -38 -10 -65 -3 -26 -8 -55 -10 -65 -1 -9 -5 -38 -9 -65 -4 -26 -9 -59
-11 -73 -2 -14 -6 -43 -9 -65 -3 -22 -12 -78 -20 -125 -8 -47 -17 -107 -20
-135 -4 -27 -8 -57 -10 -65 -2 -8 -7 -40 -10 -70 -4 -30 -8 -57 -10 -60 -2 -3
-6 -33 -10 -67 l-7 -63 881 0 c485 0 881 3 881 8 0 4 5 39 10 77 6 39 12 88
15 110 3 22 8 58 11 80 9 64 12 87 19 145 4 30 9 62 10 70 1 8 6 40 10 70 3
30 8 66 10 80 2 14 7 49 10 79 4 30 8 62 10 71 2 9 6 41 10 71 3 30 8 65 10
79 2 14 7 50 10 80 4 30 9 62 10 70 2 8 6 40 9 71 4 31 8 66 10 76 3 11 7 44
11 74 3 30 8 65 10 79 10 75 15 109 20 150 3 25 8 63 11 85 9 64 12 87 19 145
4 30 9 64 11 74 2 11 6 42 9 70 3 28 8 62 10 76 2 14 6 44 9 68 3 23 9 61 12
85 3 23 7 53 9 67 2 14 7 50 10 80 3 30 8 62 10 70 2 8 7 44 10 80 4 36 9 67
12 70 6 6 1722 7 1733 0 4 -3 11 -30 14 -61 4 -31 8 -66 11 -77 2 -12 6 -47
10 -79 3 -32 8 -65 10 -73 2 -8 6 -40 10 -71 3 -31 7 -65 9 -75 2 -11 7 -44
10 -75 4 -31 8 -65 10 -75 2 -11 7 -44 10 -75 4 -31 8 -66 11 -77 2 -12 6 -45
9 -74 4 -29 8 -62 10 -73 2 -11 7 -45 10 -76 4 -31 8 -65 10 -75 2 -11 7 -44
10 -75 4 -31 8 -65 10 -75 2 -11 7 -46 11 -79 4 -32 8 -66 10 -75 1 -8 6 -42
9 -75 4 -33 9 -67 11 -75 2 -8 6 -40 10 -71 3 -31 7 -66 10 -77 2 -12 6 -45 9
-74 4 -29 8 -62 10 -73 2 -11 7 -49 11 -85 3 -36 8 -72 10 -80 2 -8 7 -36 10
-62 3 -26 7 -63 10 -82 9 -64 14 -100 20 -151 4 -27 8 -61 11 -75 2 -14 6 -49
10 -79 3 -30 8 -62 9 -70 2 -9 4 -22 4 -28 1 -10 184 -13 882 -13 l881 0 -6
52 c-4 29 -8 64 -11 78 -2 14 -11 75 -20 135 -24 162 -25 169 -30 185 -2 8 -6
42 -10 75 -3 33 -8 67 -10 75 -2 8 -6 31 -9 50 -3 19 -14 98 -26 175 -12 77
-28 183 -35 235 -8 52 -16 104 -19 115 -2 11 -7 45 -11 75 -3 30 -17 123 -30
205 -13 83 -27 170 -30 195 -3 25 -9 60 -11 77 l-5 33 83 -36 c46 -19 157 -65
248 -100 91 -36 174 -70 185 -74 76 -33 524 -182 585 -195 8 -2 44 -11 80 -20
36 -9 73 -19 83 -21 9 -2 25 -6 35 -8 219 -54 464 -87 671 -90 641 -10 1087
244 1351 771 42 86 100 222 100 238 0 2 -42 -37 -93 -88 -81 -81 -138 -134
-204 -188 -36 -29 -137 -95 -193 -125 -316 -171 -632 -127 -935 129 -99 84
-165 151 -295 303 -122 141 -321 431 -595 869 -103 165 -215 343 -248 395 -67
106 -247 379 -260 395 -4 6 -45 62 -90 126 -45 63 -96 133 -114 155 -195 241
-200 246 -338 387 -147 149 -326 289 -475 370 -30 16 -58 32 -62 36 -7 6 -15
45 -23 104 -6 43 -16 109 -20 137 -24 150 -35 222 -40 260 -3 25 -8 56 -10 70
-6 34 -13 76 -20 130 -3 25 -10 70 -15 100 -5 30 -12 75 -15 100 -3 25 -8 56
-10 70 -7 40 -14 84 -19 121 -3 19 -7 50 -10 69 -4 19 -8 49 -10 65 -4 30 -33
226 -42 278 -11 67 -13 84 -19 122 -3 23 -7 50 -9 61 -2 12 -7 45 -11 75 -4
30 -8 56 -10 59 -2 3 -6 34 -10 70 -4 36 -8 67 -10 70 -1 3 -6 32 -10 65 -3
32 -8 62 -10 65 -2 3 -6 34 -10 70 -4 36 -8 67 -10 70 -2 3 -6 28 -9 55 -4 28
-9 57 -11 65 -2 8 -6 38 -10 65 -3 28 -10 75 -15 105 -5 30 -12 75 -15 100 -3
25 -11 74 -16 110 -6 36 -12 79 -15 95 -2 17 -7 48 -11 70 -3 22 -7 45 -8 50
-1 15 -19 139 -20 145 -5 20 -16 91 -20 120 -2 19 -6 53 -10 75 -9 59 -12 78
-34 225 -22 144 -47 313 -56 370 -7 40 -22 146 -36 240 -5 36 -14 90 -19 120
-5 30 -12 78 -15 105 -4 28 -8 57 -10 65 -2 8 -7 35 -10 60 -3 25 -12 86 -20
135 -8 50 -17 113 -20 140 -4 28 -8 57 -10 65 -2 8 -7 35 -10 60 -3 25 -8 56
-10 70 -14 88 -25 160 -30 195 -3 22 -7 54 -10 70 -3 17 -7 48 -10 70 -3 22
-10 63 -15 90 -5 28 -11 70 -14 95 -3 25 -7 56 -10 70 -3 14 -12 72 -20 130
-9 58 -18 116 -20 130 -3 14 -10 61 -16 105 -15 102 -19 134 -25 165 -2 14 -7
42 -10 63 -3 20 -7 52 -10 70 -7 45 -55 364 -61 407 -3 19 -7 46 -10 60 -2 14
-7 45 -9 70 -3 25 -8 56 -11 70 -3 14 -8 39 -10 55 -5 42 -24 175 -30 205 -2
14 -7 45 -10 70 -3 25 -8 54 -10 65 -2 11 -7 43 -10 70 -3 28 -7 55 -9 61 -2
8 -307 11 -1109 11 l-1106 0 -5 -21z m1160 -3686 c2 -8 15 -89 29 -180 24
-153 29 -187 41 -280 12 -99 18 -136 20 -151 2 -9 6 -40 10 -70 3 -30 8 -65
10 -79 2 -14 6 -44 9 -67 3 -24 9 -62 12 -85 3 -24 7 -54 9 -68 2 -14 7 -50
10 -80 3 -30 8 -62 10 -70 2 -8 6 -42 10 -75 3 -33 8 -67 10 -75 2 -8 6 -40
10 -71 3 -31 8 -67 10 -79 2 -12 7 -46 9 -74 3 -28 7 -60 10 -71 2 -11 7 -45
10 -76 4 -31 8 -65 10 -75 2 -11 7 -44 10 -75 4 -31 8 -65 10 -75 2 -11 7 -46
11 -79 4 -32 8 -66 10 -75 1 -8 6 -40 9 -70 4 -30 8 -66 10 -80 2 -14 7 -47
11 -75 3 -27 8 -63 11 -80 2 -16 6 -48 9 -70 8 -66 26 -198 31 -227 2 -15 6
-47 9 -70 2 -24 6 -57 9 -73 2 -17 8 -55 11 -85 4 -30 9 -62 10 -70 2 -8 6
-42 9 -75 4 -33 9 -71 11 -85 8 -45 14 -84 21 -145 3 -33 8 -67 9 -76 2 -9 6
-40 10 -70 3 -30 8 -61 10 -69 2 -8 7 -44 10 -80 4 -36 8 -72 10 -80 2 -9 6
-43 10 -75 4 -33 9 -67 11 -76 3 -10 -8 -21 -28 -31 -94 -46 -289 -216 -382
-335 l-49 -63 -147 0 -147 0 -28 41 c-46 70 -211 230 -303 294 l-43 30 6 62
c3 34 8 72 10 85 2 13 6 46 10 73 14 106 16 121 20 145 3 14 7 51 10 83 4 32
8 68 11 80 2 12 11 76 19 142 9 66 18 131 20 145 2 14 6 50 10 80 3 30 10 80
15 110 5 30 12 82 15 115 4 32 8 67 10 76 2 9 6 40 10 69 4 29 8 60 10 69 1 9
6 45 10 81 4 36 9 73 11 84 2 10 6 44 9 75 4 31 8 63 10 71 2 8 7 40 10 70 3
30 8 66 10 80 2 14 6 45 10 70 3 25 8 56 10 70 2 14 7 50 10 80 4 30 8 66 10
80 7 47 27 195 30 225 2 17 6 44 9 60 2 17 8 55 11 85 3 30 8 62 10 70 2 8 6
42 10 75 3 33 8 71 10 85 5 30 8 51 35 255 12 88 23 171 25 185 2 14 6 48 10
75 3 28 8 65 11 83 2 17 6 47 8 65 14 105 34 242 41 280 10 55 13 76 20 133 4
33 9 61 10 64 2 3 24 6 49 6 33 0 47 -5 51 -16z"/>
</g>
</svg>
